<?xml version="1.0" standalone="no"?>
<!DOCTYPE svg PUBLIC "-//W3C//DTD SVG 20010904//EN"
 "http://www.w3.org/TR/2001/REC-SVG-20010904/DTD/svg10.dtd">
<svg version="1.0" xmlns="http://www.w3.org/2000/svg"
 width="1015.000000pt" height="669.000000pt" viewBox="0 0 1015.000000 669.000000"
 preserveAspectRatio="xMidYMid meet">

<g transform="translate(0.000000,669.000000) scale(0.100000,-0.100000)"
fill="#000000" stroke="none">
<path d="M6080 5434 c0 -1367 0 -1368 -56 -1547 -123 -389 -421 -693 -805
-821 -190 -64 -220 -66 -952 -66 l-657 0 2 -227 3 -228 615 -3 c374 -2 661 1
733 8 228 20 414 73 622 176 472 234 809 672 915 1190 37 177 41 352 38 1584
l-3 1185 -227 3 -228 2 0 -1256z"/>
<path d="M5197 6323 c-4 -3 -7 -690 -7 -1525 l0 -1519 23 6 c95 29 282 158
377 263 l60 65 0 1358 0 1359 -223 0 c-123 0 -227 -3 -230 -7z"/>
<path d="M4340 4540 l0 -1330 225 0 225 0 0 1330 0 1330 -225 0 -225 0 0
-1330z"/>
<path d="M4066 4749 c-210 -226 -360 -524 -420 -834 -17 -86 -37 -305 -30
-317 3 -5 106 -8 230 -8 l224 0 0 43 c0 57 26 226 45 290 13 44 15 120 13 471
l-3 419 -59 -64z"/>
<path d="M253 1719 c-151 -26 -242 -121 -243 -250 0 -143 60 -201 295 -284 87
-32 125 -61 125 -99 0 -31 -43 -66 -82 -66 -32 0 -88 47 -88 74 0 14 -18 16
-125 16 -125 0 -125 0 -125 -24 0 -45 31 -111 72 -153 133 -136 422 -132 540
7 41 47 58 97 58 169 0 124 -63 182 -290 267 -76 28 -130 69 -130 99 0 9 12
27 26 42 20 20 31 24 57 19 33 -6 67 -38 67 -62 0 -11 26 -14 131 -14 l132 0
-7 43 c-15 93 -91 174 -190 202 -70 20 -161 25 -223 14z"/>
<path d="M1864 1715 c-136 -29 -257 -123 -310 -240 -76 -166 -46 -369 73 -496
57 -62 107 -94 180 -120 123 -42 237 -34 359 26 87 43 154 111 197 203 31 64
32 72 32 192 0 120 -1 128 -32 192 -60 128 -170 214 -310 243 -82 18 -109 18
-189 0z m145 -216 c64 -14 100 -45 129 -107 33 -72 29 -177 -10 -244 -39 -66
-91 -91 -182 -86 -62 3 -79 8 -111 32 -20 16 -46 47 -56 70 -25 56 -25 176 0
231 21 47 70 92 109 101 15 3 32 7 37 9 18 6 39 5 84 -6z"/>
<path d="M2778 1701 c-162 -52 -259 -165 -289 -337 -31 -180 38 -364 171 -452
83 -56 164 -75 287 -70 88 3 107 7 166 36 105 52 188 151 213 255 l6 27 -128
0 -129 0 -22 -34 c-27 -42 -78 -66 -143 -66 -76 0 -126 33 -164 107 -23 46
-21 175 3 228 57 123 209 144 298 41 l32 -36 127 0 126 0 -6 26 c-33 130 -149
243 -290 280 -71 19 -189 17 -258 -5z"/>
<path d="M750 1615 l0 -95 115 0 115 0 0 -340 0 -340 120 0 120 0 0 340 0 340
120 0 120 0 0 95 0 95 -355 0 -355 0 0 -95z"/>
<path d="M3450 1275 l0 -435 120 0 120 0 2 191 3 190 135 -188 136 -188 142
-3 c78 -1 142 0 142 3 0 3 -74 104 -165 225 l-165 219 160 211 159 210 -138 0
-138 0 -134 -186 -134 -187 -3 187 -2 186 -120 0 -120 0 0 -435z"/>
<path d="M6517 1690 c-73 -26 -122 -57 -168 -106 -75 -81 -103 -140 -119 -251
-26 -187 72 -378 232 -453 295 -137 616 60 618 378 l0 52 -230 0 -230 0 0 -45
0 -45 170 0 170 0 0 -23 c0 -84 -83 -198 -172 -238 -80 -35 -194 -33 -270 4
-112 55 -169 148 -176 289 -8 155 48 264 167 325 56 29 72 33 144 33 65 0 93
-5 132 -24 51 -23 121 -87 131 -118 4 -15 17 -18 70 -18 35 0 64 3 64 8 0 4
-13 30 -29 57 -38 67 -99 120 -179 158 -56 26 -79 31 -166 34 -83 3 -111 0
-159 -17z"/>
<path d="M4380 1270 l0 -430 55 0 55 0 2 316 3 315 140 -316 140 -315 40 2 39
3 141 315 140 315 3 -318 2 -317 55 0 55 0 0 430 0 430 -58 0 -58 0 -159 -356
-159 -356 -21 43 c-12 24 -82 179 -155 344 -74 165 -138 306 -143 313 -5 7
-32 12 -63 12 l-54 0 0 -430z"/>
<path d="M5542 1278 c-84 -233 -152 -426 -152 -430 0 -5 24 -8 54 -8 l54 0 33
95 34 95 194 -2 193 -3 32 -90 32 -90 58 -3 c52 -3 57 -1 52 15 -3 10 -73 203
-155 428 l-148 410 -64 3 -64 2 -153 -422z m297 66 c39 -111 71 -207 71 -213
0 -8 -48 -11 -156 -11 -121 0 -155 3 -152 13 3 6 38 105 79 219 40 114 76 204
80 200 3 -4 38 -98 78 -208z"/>
<path d="M7332 1278 c-84 -233 -152 -426 -152 -430 0 -5 24 -8 54 -8 l54 0 33
95 34 95 194 -2 193 -3 32 -90 32 -90 58 -3 c52 -3 57 -1 52 15 -3 10 -73 203
-155 428 l-148 410 -64 3 -64 2 -153 -422z m297 66 c39 -111 71 -207 71 -213
0 -8 -48 -11 -156 -11 -121 0 -155 3 -152 13 3 6 38 105 79 219 40 114 76 204
80 200 3 -4 38 -98 78 -208z"/>
<path d="M8070 1270 l0 -430 55 0 55 0 2 341 3 340 225 -340 224 -341 53 0 53
0 0 430 0 430 -55 0 -55 0 -2 -337 -3 -337 -222 337 -223 337 -55 0 -55 0 0
-430z"/>
<path d="M8930 1270 l0 -430 230 0 230 0 0 45 0 45 -175 0 -175 0 0 150 0 150
155 0 155 0 0 45 0 45 -155 0 -155 0 0 145 0 145 175 0 175 0 0 45 0 45 -230
0 -230 0 0 -430z"/>
<path d="M9570 1270 l0 -430 55 0 55 0 0 175 0 175 69 0 69 0 102 -175 102
-175 65 0 c35 0 62 3 60 8 -2 4 -47 80 -100 168 -112 188 -115 194 -92 194 32
0 114 53 140 90 33 47 45 91 45 160 -1 71 -26 127 -81 173 -65 57 -115 67
-316 67 l-173 0 0 -430z m380 321 c58 -31 75 -63 75 -141 0 -78 -17 -110 -76
-145 -28 -16 -56 -21 -151 -24 l-118 -3 0 166 0 166 118 0 c95 0 124 -4 152
-19z"/>
<path d="M2678 359 c-21 -11 -38 -26 -38 -34 0 -19 2 -19 45 2 21 10 35 24 35
35 0 10 -1 18 -2 18 -2 -1 -20 -10 -40 -21z"/>
<path d="M1525 279 c-112 -32 -128 -205 -24 -261 91 -49 209 15 209 114 l0 28
-75 0 c-68 0 -75 -2 -75 -20 0 -17 7 -20 50 -20 58 0 65 -16 25 -55 -17 -17
-35 -25 -60 -25 -47 0 -71 14 -90 50 -25 49 -19 88 19 126 42 42 82 45 124 9
29 -24 72 -34 72 -17 0 14 -54 60 -83 71 -33 13 -50 13 -92 0z"/>
<path d="M2014 276 c-34 -15 -44 -33 -44 -75 0 -35 22 -54 87 -75 55 -18 75
-45 53 -71 -19 -23 -77 -19 -92 5 -16 25 -48 26 -48 2 0 -75 168 -79 186 -5
13 50 -6 76 -71 99 -66 24 -86 44 -69 72 17 26 70 28 86 3 13 -21 58 -30 58
-12 0 6 -10 22 -22 36 -28 31 -81 41 -124 21z"/>
<path d="M2635 279 c-82 -23 -122 -137 -76 -212 37 -61 114 -83 186 -53 48 20
75 68 75 133 0 44 -5 58 -31 87 -17 20 -47 40 -67 46 -42 11 -46 11 -87 -1z
m94 -43 c58 -30 69 -119 22 -167 -49 -48 -125 -38 -156 21 -50 97 39 194 134
146z"/>
<path d="M4485 279 c-112 -32 -128 -205 -24 -261 91 -49 209 15 209 114 l0 28
-75 0 c-68 0 -75 -2 -75 -20 0 -17 7 -20 50 -20 58 0 65 -16 25 -55 -17 -17
-35 -25 -60 -25 -47 0 -71 14 -90 50 -25 49 -19 88 19 126 42 42 82 45 124 9
29 -24 72 -34 72 -17 0 14 -54 60 -83 71 -33 13 -50 13 -92 0z"/>
<path d="M8535 279 c-82 -23 -122 -137 -76 -212 37 -61 114 -83 186 -53 48 20
75 68 75 133 0 44 -5 58 -31 87 -17 20 -47 40 -67 46 -42 11 -46 11 -87 -1z
m94 -43 c58 -30 69 -119 22 -167 -49 -48 -125 -38 -156 21 -50 97 39 194 134
146z"/>
<path d="M1750 140 l0 -140 81 0 c71 0 80 2 77 18 -2 13 -15 18 -56 20 l-52 3
0 45 0 44 45 0 c33 0 45 4 45 15 0 11 -12 15 -45 15 l-45 0 0 45 0 45 55 0
c42 0 55 3 55 15 0 12 -16 15 -80 15 l-80 0 0 -140z"/>
<path d="M2200 265 c0 -10 11 -15 35 -15 l35 0 0 -125 0 -125 25 0 25 0 0 125
0 125 35 0 c24 0 35 5 35 15 0 12 -17 15 -95 15 -78 0 -95 -3 -95 -15z"/>
<path d="M2440 140 l0 -140 25 0 25 0 0 140 0 140 -25 0 -25 0 0 -140z"/>
<path d="M2870 140 l0 -140 25 0 c24 0 24 1 27 102 l3 101 68 -101 c48 -73 73
-102 87 -102 19 0 20 7 20 140 0 133 -1 140 -20 140 -18 0 -20 -8 -22 -102
l-3 -103 -67 103 c-56 85 -72 102 -93 102 l-25 0 0 -140z"/>
<path d="M3270 140 l0 -140 25 0 25 0 0 140 0 140 -25 0 -25 0 0 -140z"/>
<path d="M3380 140 l0 -140 25 0 c24 0 24 1 27 102 l3 101 68 -101 c48 -73 73
-102 87 -102 19 0 20 7 20 140 0 133 -1 140 -20 140 -18 0 -20 -8 -22 -102
l-3 -103 -67 103 c-56 85 -72 102 -93 102 l-25 0 0 -140z"/>
<path d="M3660 265 c0 -10 11 -15 35 -15 l35 0 0 -125 0 -125 25 0 25 0 0 125
0 125 35 0 c24 0 35 5 35 15 0 12 -17 15 -95 15 -78 0 -95 -3 -95 -15z"/>
<path d="M3900 140 l0 -140 81 0 c71 0 80 2 77 18 -2 13 -15 18 -56 20 l-52 3
0 45 0 44 45 0 c33 0 45 4 45 15 0 11 -12 15 -45 15 l-45 0 0 45 0 45 55 0
c42 0 55 3 55 15 0 12 -16 15 -80 15 l-80 0 0 -140z"/>
<path d="M4110 140 l0 -140 70 0 c63 0 70 2 70 20 0 17 -7 20 -45 20 l-45 0 0
120 0 120 -25 0 -25 0 0 -140z"/>
<path d="M4300 140 l0 -140 25 0 25 0 0 140 0 140 -25 0 -25 0 0 -140z"/>
<path d="M4720 140 l0 -140 81 0 c71 0 80 2 77 18 -2 13 -15 18 -56 20 l-52 3
0 45 0 44 45 0 c33 0 45 4 45 15 0 11 -12 15 -45 15 l-45 0 0 45 0 45 55 0
c42 0 55 3 55 15 0 12 -16 15 -80 15 l-80 0 0 -140z"/>
<path d="M4930 140 l0 -140 25 0 c24 0 24 1 27 102 l3 101 68 -101 c48 -73 73
-102 87 -102 19 0 20 7 20 140 0 133 -1 140 -20 140 -18 0 -20 -8 -22 -102
l-3 -103 -67 103 c-56 85 -72 102 -93 102 l-25 0 0 -140z"/>
<path d="M5210 265 c0 -10 11 -15 35 -15 l35 0 0 -125 0 -125 25 0 25 0 0 125
0 125 35 0 c24 0 35 5 35 15 0 12 -17 15 -95 15 -78 0 -95 -3 -95 -15z"/>
<path d="M5450 140 l0 -140 81 0 c71 0 80 2 77 18 -2 13 -15 18 -56 20 l-52 3
0 45 0 44 45 0 c33 0 45 4 45 15 0 11 -12 15 -45 15 l-45 0 0 45 0 45 55 0
c42 0 55 3 55 15 0 12 -16 15 -80 15 l-80 0 0 -140z"/>
<path d="M5770 140 l0 -140 63 0 c117 1 177 49 177 142 0 55 -17 87 -59 115
-28 19 -48 23 -107 23 l-74 0 0 -140z m149 95 c58 -29 67 -128 16 -172 -19
-17 -39 -23 -71 -23 l-44 0 0 105 0 105 35 0 c20 0 49 -7 64 -15z"/>
<path d="M6060 140 l0 -140 81 0 c71 0 80 2 77 18 -2 13 -15 18 -56 20 l-52 3
0 45 0 44 45 0 c33 0 45 4 45 15 0 11 -12 15 -45 15 l-45 0 0 45 0 45 55 0
c42 0 55 3 55 15 0 12 -16 15 -80 15 l-80 0 0 -140z"/>
<path d="M6380 140 l0 -140 25 0 25 0 0 140 0 140 -25 0 -25 0 0 -140z"/>
<path d="M6490 140 l0 -140 25 0 c24 0 24 1 27 102 l3 101 68 -101 c48 -73 73
-102 87 -102 19 0 20 7 20 140 0 133 -1 140 -20 140 -18 0 -20 -8 -22 -102
l-3 -103 -67 103 c-56 85 -72 102 -93 102 l-25 0 0 -140z"/>
<path d="M6814 143 c47 -125 54 -138 77 -141 27 -3 29 0 127 266 3 10 -2 13
-19 10 -19 -3 -29 -19 -63 -115 -22 -62 -43 -110 -47 -105 -3 4 -23 55 -44
115 -33 93 -41 107 -60 107 -22 0 -22 -3 29 -137z"/>
<path d="M7070 140 l0 -140 81 0 c71 0 80 2 77 18 -2 13 -15 18 -56 20 l-52 3
0 45 0 44 45 0 c33 0 45 4 45 15 0 11 -12 15 -45 15 l-45 0 0 45 0 45 55 0
c42 0 55 3 55 15 0 12 -16 15 -80 15 l-80 0 0 -140z"/>
<path d="M7280 140 l0 -140 25 0 c24 0 24 1 27 102 l3 101 68 -101 c48 -73 73
-102 87 -102 19 0 20 7 20 140 0 133 -1 140 -20 140 -18 0 -20 -8 -22 -102
l-3 -103 -67 103 c-56 85 -72 102 -93 102 l-25 0 0 -140z"/>
<path d="M7560 265 c0 -10 11 -15 35 -15 l35 0 0 -125 0 -125 25 0 25 0 0 125
0 125 35 0 c24 0 35 5 35 15 0 12 -17 15 -95 15 -78 0 -95 -3 -95 -15z"/>
<path d="M7841 153 c-24 -70 -46 -134 -49 -141 -2 -7 4 -12 17 -12 15 0 25 9
32 30 11 29 13 30 74 30 62 0 64 -1 70 -30 5 -23 12 -30 30 -30 l24 0 -48 138
c-46 131 -50 137 -77 140 -29 3 -30 1 -73 -125z m92 25 c8 -24 18 -51 22 -60
6 -16 1 -18 -40 -18 -44 0 -47 1 -41 23 7 30 35 97 40 97 2 0 11 -19 19 -42z"/>
<path d="M8090 140 l0 -140 25 0 c24 0 25 3 25 61 0 51 3 60 17 57 9 -2 32
-29 50 -61 27 -45 39 -57 59 -57 27 0 26 5 -22 81 l-23 36 25 12 c48 22 55
105 11 136 -14 10 -46 15 -94 15 l-73 0 0 -140z m138 98 c7 -7 12 -24 12 -38
0 -36 -17 -50 -62 -50 l-38 0 0 50 0 50 38 0 c21 0 43 -5 50 -12z"/>
<path d="M8340 140 l0 -140 25 0 25 0 0 140 0 140 -25 0 -25 0 0 -140z"/>
</g>
</svg>
